<svg width="10" height="18" viewBox="0 0 10 18" fill="none" xmlns="http://www.w3.org/2000/svg">
<path d="M4.88919 0.921387C7.259 0.921387 9.21504 2.85281 9.19623 5.21137C9.19623 7.5885 7.22138 9.50135 4.81395 9.4642C2.44414 9.42706 0.544531 7.51421 0.544531 5.19279C0.544531 2.83423 2.48176 0.921387 4.88919 0.921387ZM9.72286 10.9499C9.72286 10.9871 9.70405 11.0056 9.70405 11.0428C9.64762 11.4142 9.45954 11.7113 9.13981 11.9156C8.93292 12.0456 8.70722 12.1756 8.48152 12.287C7.91728 12.5656 7.31543 12.7885 6.69476 12.937C6.61953 12.9556 6.61953 12.9556 6.67595 13.0113C7.0145 13.3456 7.37185 13.6985 7.71039 14.0328C8.14298 14.4599 8.59437 14.9056 9.02696 15.3327C9.64762 15.9456 9.47835 16.967 8.68841 17.3385C8.55676 17.4127 8.40629 17.4313 8.25583 17.4684C8.1806 17.4684 8.08656 17.4684 8.01132 17.4684C7.99251 17.4684 7.97371 17.4685 7.97371 17.4499C7.67278 17.4127 7.42827 17.2642 7.20258 17.0599C6.45026 16.317 5.67912 15.5556 4.9268 14.8127C4.87038 14.757 4.87038 14.757 4.81395 14.8127C4.04283 15.5742 3.2905 16.317 2.51937 17.0785C2.38772 17.2085 2.25606 17.3013 2.08679 17.3756C1.97394 17.4313 1.84228 17.4499 1.72944 17.4684C1.6542 17.4684 1.57897 17.4684 1.48493 17.4684C1.44732 17.4684 1.42851 17.4499 1.39089 17.4499C0.883075 17.357 0.54453 17.0785 0.394066 16.5956C0.243601 16.1127 0.356449 15.6856 0.713802 15.3327C1.03354 15.017 1.33447 14.7199 1.6542 14.4042C2.12441 13.9399 2.59461 13.4756 3.046 13.0299C3.10242 12.9742 3.10242 12.9742 3.02719 12.9556C3.00838 12.9556 2.97077 12.937 2.95196 12.937C2.1056 12.7328 1.33447 12.3985 0.600954 11.9528C0.168369 11.6742 -0.0385201 11.2656 0.017904 10.7642C0.111944 9.83563 1.1652 9.3342 1.95513 9.83563C2.1056 9.92849 2.23725 10.0028 2.40653 10.0771C3.2717 10.5042 4.19329 10.6899 5.1525 10.6342C5.6227 10.6156 6.0929 10.5228 6.5631 10.3742C7.0145 10.2256 7.40947 10.0213 7.82324 9.79849C8.50033 9.40849 9.38431 9.7242 9.64762 10.4485C9.68524 10.5599 9.70405 10.6528 9.72286 10.7642C9.72286 10.8199 9.72286 10.8756 9.72286 10.9499Z"/>
</svg>
